<svg width="144" height="316" viewBox="0 0 144 316" fill="none" xmlns="http://www.w3.org/2000/svg">
<path d="M143.508 220.06C142.402 237.76 132.842 255.816 116.267 262.415C102.056 267.851 84.146 268.677 71.7927 258.33C62.5498 251.255 59.0174 235.157 68.6847 226.845C77.9191 217.797 95.6846 225.958 94.621 239.27C98.2405 248.407 79.4705 254.019 89.3388 260.425C100.691 263.483 112.267 253.89 115.181 242.742C119.417 226.743 119.192 209.477 115.481 193.391C113.485 185.459 108.75 173.139 98.6239 176.351C85.3706 179.534 77.9346 193.077 73.7623 205.394C71.3481 187.939 60.7373 172.845 48.5386 161.072C48.5386 196.134 48.5386 231.196 48.5386 266.258L40.9463 266.298C40.9463 194.242 40.9463 120.722 40.9463 48.6655L48.5386 48.659C48.5386 83.2244 48.5386 119.218 48.5386 153.784C60.6365 142.184 71.2923 127.339 73.5801 110.027C77.9511 122.939 86.4086 137.196 100.704 139.198C111.211 139.796 114.213 126.543 116.309 118.288C119.064 102.689 119.364 86.0971 114.584 70.8889C111.165 60.1955 99.9268 51.4403 88.8505 54.3115C79.9027 61.0568 97.5552 65.9361 94.5712 74.6295C96.4772 87.1145 81.5375 96.8783 71.2408 90.4082C60.088 84.0879 60.9009 67.0871 69.4966 58.8695C75.3478 52.6174 86.4806 48.5808 94.6361 48.6469C102.954 48.7144 107.807 49.3504 115.253 52.0375C131.924 58.1871 141.996 75.9128 143.367 93.5746C145.886 113.603 135.054 135.457 116.806 143.365C104.939 148.126 91.2124 144.006 82.1095 135.267C80.6216 144.037 76.8439 152.404 72.1634 158.456C75.9429 164.828 80.0308 175.082 82.1175 178.595C93.5132 167.858 113.645 166.563 125.507 177.208C137.585 187.459 145.119 203.779 143.508 220.06Z" fill="black"/>
<path d="M24.6771 266.354H0V48.6456H24.6771V266.354Z" fill="black"/>
</svg>
