<svg width="147" height="316" viewBox="0 0 147 316" fill="none" xmlns="http://www.w3.org/2000/svg">
<g clip-path="url(#clip0_103_2)">
<path fill-rule="evenodd" clip-rule="evenodd" d="M-0.0800781 246.461C13.9987 236.942 24.513 229.736 31.2854 224.754C38.0574 219.861 45.1858 213.723 52.4926 206.428C59.7989 199.133 65.9474 190.859 70.9372 181.696C74.858 174.935 78.244 167.106 81.0065 158.21C83.7685 149.402 85.1944 140.862 85.4615 132.766C85.4615 125.205 84.4812 117.998 82.4319 111.237C80.4717 104.387 77.0857 98.7826 72.2739 94.2455C67.462 89.7973 61.2247 87.5733 53.4724 87.5733C45.9877 87.5733 38.9481 89.0856 32.3545 92.0214C25.8496 95.0461 21.2162 99.8501 18.6321 106.611C18.6321 107.234 18.2757 108.035 17.741 109.191C17.9194 110.615 18.6321 111.682 19.9687 112.483C21.3054 113.284 22.4636 113.639 23.5331 113.639C24.0674 113.639 25.5825 113.372 27.899 112.839C30.3051 112.305 32.2653 111.949 33.8691 111.949C38.5917 111.949 42.7797 113.639 46.6112 116.931C50.354 120.223 52.225 124.226 52.225 128.941C52.225 132.321 51.2451 135.524 49.3737 138.46C47.5023 141.396 44.9182 143.798 41.6214 145.488C38.3246 147.267 34.6714 148.068 30.7507 148.068C23.6223 148.068 17.563 145.933 12.573 141.574C7.67215 137.126 5.1772 131.521 5.1772 124.493C5.1772 115.508 7.93948 107.768 13.3749 101.185C18.8997 94.6013 25.8496 89.7084 34.4038 86.4168C42.8689 83.0361 51.4231 81.4348 60.1557 81.4348C69.6898 81.4348 78.7787 83.8368 87.2437 88.7298C95.798 93.5338 102.481 100.206 107.471 108.48C112.461 116.842 115.045 125.738 115.045 135.346C115.045 152.427 109.342 168.263 97.9365 182.942C86.531 197.621 72.4523 210.342 55.611 221.195C44.3839 228.579 26.206 238.543 1.16742 251.087L-0.0800781 246.461ZM123.688 108.835C123.688 105.633 124.847 102.964 127.163 100.829C129.391 98.6047 132.153 97.5371 135.45 97.5371C138.301 97.5371 140.975 98.7826 143.38 101.185C145.786 103.498 146.945 106.255 146.945 109.28C146.945 112.483 145.697 115.241 143.38 117.465C140.886 119.6 138.123 120.667 135.005 120.667C131.707 120.667 129.035 119.6 126.896 117.198C124.757 114.885 123.688 112.127 123.688 108.835ZM123.688 155.452C123.688 152.249 124.847 149.491 126.985 147.356C129.212 145.132 131.975 144.065 135.45 144.065C138.301 144.065 140.886 145.221 143.38 147.623C145.697 150.025 146.945 152.605 146.945 155.452C146.945 158.921 145.786 161.679 143.559 163.903C141.242 166.128 138.569 167.284 135.45 167.284C131.975 167.284 129.212 166.128 126.985 163.993C124.847 161.857 123.688 159.01 123.688 155.452Z" fill="black" stroke="black" stroke-width="0.586511"/>
</g>
<defs>
<clipPath id="clip0_103_2">
<rect width="147" height="316" fill="white"/>
</clipPath>
</defs>
</svg>
