<svg width="112" height="316" viewBox="0 0 112 316" fill="none" xmlns="http://www.w3.org/2000/svg">
<path fill-rule="evenodd" clip-rule="evenodd" d="M63.6705 174.142C58.9108 175.462 54.6193 178.412 50.6399 182.915C46.6605 187.496 44.7098 192.542 44.7098 197.977C44.7098 201.393 45.8802 205.275 48.143 209.389C50.4058 213.582 53.839 216.61 58.2866 218.551C59.7691 218.861 60.4714 219.638 60.4714 220.725C60.4714 221.113 59.9252 221.501 58.5987 221.812C51.4982 220.026 45.6461 216.222 41.1205 210.554C36.5949 204.809 34.2541 198.287 34.0981 190.834C34.3321 182.837 36.751 175.384 41.3546 168.552C46.0363 161.642 52.0444 156.751 59.379 153.878L53.9951 126.317C41.9788 136.255 32.2254 146.58 24.6567 157.45C17.088 168.241 13.1867 179.965 12.8746 192.62C13.0306 198.287 14.201 203.8 16.3858 209.079C18.5706 214.436 21.8477 219.249 26.2173 223.675C35.0344 232.448 46.5044 237.029 60.4714 237.494C65.2311 237.184 70.3029 236.33 75.7648 234.932L63.6705 174.142ZM69.2885 173.365L81.4608 233.069C93.477 228.255 99.4852 217.774 99.4852 201.781C98.7829 196.424 97.2224 191.61 94.5694 187.34C91.9945 182.993 88.5613 179.577 84.1918 177.092C79.8222 174.608 74.9065 173.365 69.2885 173.365ZM53.2928 92.622C55.8678 91.0693 58.8328 88.352 62.0319 84.5477C65.2311 80.8211 68.3522 76.3957 71.3172 71.4269C74.3603 66.3804 76.7791 61.2563 78.5738 56.0546C80.3684 50.9305 81.2267 46.0393 81.2267 41.5363C81.2267 39.5953 81.0707 37.6544 80.6805 35.9464C80.3684 33.1514 79.5101 30.9775 78.0276 29.5024C76.5451 28.1049 74.6724 27.3285 72.3316 27.3285C67.6499 27.3285 63.4364 30.2012 59.6911 35.9464C56.8041 40.9152 54.3852 46.8157 52.6686 53.4925C50.874 60.247 49.8596 66.9239 49.7036 73.6784C50.0937 81.3645 51.3422 87.6532 53.2928 92.622ZM48.3771 97.125C44.8659 84.5477 42.9152 71.7374 42.525 58.6943C42.6031 50.3094 43.4614 42.4679 45.0999 35.17C46.6605 27.872 48.9233 21.5833 51.8883 16.1487C54.7754 10.714 58.1306 6.59922 61.8759 3.80426C65.2311 1.31984 67.6499 0 68.9764 0C69.9907 0 70.849 0.38819 71.6293 1.08693C72.4096 1.78567 73.424 2.95024 74.6724 4.503C83.9577 17.6238 88.6393 33.4619 88.6393 51.9398C88.6393 60.7129 87.4689 69.253 85.1281 77.7932C82.8653 86.2557 79.5101 94.3301 75.0625 101.861C70.5369 109.469 65.2311 116.069 59.0669 121.736L65.3871 152.326C68.8203 151.937 71.1612 151.627 72.4876 151.627C78.4177 151.627 83.7236 152.869 88.6393 155.353C93.5551 157.838 97.7686 161.176 101.202 165.446C104.635 169.639 107.288 174.452 109.161 179.887C110.955 185.322 111.97 190.989 111.97 196.89C111.97 206.051 109.551 214.436 104.713 221.967C99.8753 229.498 92.6187 235.01 82.8653 238.581C83.4895 242.386 84.5819 247.898 86.2205 254.963C87.781 262.106 88.9514 267.773 89.7317 271.966C90.512 276.158 90.8241 280.195 90.8241 284.155C90.8241 290.288 89.3416 295.723 86.3765 300.536C83.3335 305.35 79.276 309.077 74.1262 311.716C69.0544 314.356 63.4364 315.676 57.3503 315.676C48.7672 315.676 41.2766 313.269 34.8783 308.533C28.4801 303.72 25.0469 297.276 24.7347 289.046C24.9688 285.397 25.8271 281.981 27.3877 278.72C28.9482 275.459 31.055 272.82 33.7859 270.801C36.4389 268.705 39.638 267.618 43.3053 267.385C46.3484 267.385 49.2354 268.239 51.9664 269.869C54.6193 271.577 56.8041 273.829 58.4427 276.702C60.0032 279.574 60.8615 282.757 60.8615 286.173C60.8615 290.754 59.301 294.636 56.1799 297.819C53.0588 301.002 49.0793 302.633 44.3197 302.633H42.525C45.5681 307.291 50.5619 309.698 57.5063 309.698C61.0176 309.698 64.6068 308.921 68.1961 307.524C71.8634 306.049 74.9065 304.108 77.4814 301.623C80.0563 299.139 81.7729 296.499 82.4752 293.704C83.8016 290.521 84.4258 286.096 84.4258 280.583C84.4258 276.857 84.0357 273.13 83.3335 269.404C82.6312 265.755 81.5388 260.863 80.0563 254.808C78.5738 248.83 77.4814 244.171 76.8572 240.988C72.1755 242.153 67.3378 242.774 62.266 242.774C53.761 242.774 45.7242 241.066 38.1555 237.572C30.5868 234.078 23.9545 229.265 18.1804 223.054C12.4844 216.843 8.03684 209.855 4.83771 201.936C1.71661 194.095 0.0780276 185.865 0 177.325C0.31211 169.406 1.79463 161.797 4.60363 154.655C7.41262 147.434 11.0019 140.602 15.4495 134.236C19.897 127.87 24.5007 122.047 29.2603 116.845C34.0981 111.721 40.4183 105.122 48.3771 97.125Z" fill="black"/>
</svg>

