<?xml version="1.0" standalone="no"?>
<!DOCTYPE svg PUBLIC "-//W3C//DTD SVG 20010904//EN"
 "http://www.w3.org/TR/2001/REC-SVG-20010904/DTD/svg10.dtd">
<svg version="1.0" xmlns="http://www.w3.org/2000/svg"
 width="196.000000pt" height="196.000000pt" viewBox="0 0 196.000000 196.000000"
 preserveAspectRatio="xMidYMid meet">
<metadata>
Created by potrace 1.14, written by Peter Selinger 2001-2017
</metadata>
<g transform="translate(0.000000,196.000000) scale(0.100000,-0.100000)"
fill="#000000" stroke="none">
<path d="M860 1783 c-256 -54 -386 -245 -299 -442 10 -24 19 -45 19 -46 0 -2
-17 -14 -37 -26 -21 -13 -49 -35 -62 -49 -84 -89 -79 -249 9 -324 l29 -24 -42
-28 c-183 -121 -225 -331 -90 -443 65 -54 211 -80 286 -52 30 12 37 6 37 -28
0 -67 63 -138 141 -159 112 -30 231 45 246 154 l5 40 112 0 c61 1 125 3 141 6
35 6 120 79 142 122 22 43 33 86 22 86 -5 0 -9 -7 -9 -15 0 -51 -99 -160 -123
-136 -12 12 -37 3 -37 -13 0 -21 -51 -38 -123 -41 -100 -5 -116 2 -137 58 -22
56 -32 70 -74 99 -27 18 -26 16 7 -16 33 -32 67 -89 67 -112 0 -3 -10 -4 -22
-1 -22 6 -22 6 -4 -8 11 -8 23 -15 27 -15 13 0 -11 -92 -32 -118 -34 -44 -89
-72 -140 -72 -111 0 -189 64 -189 154 0 28 6 39 33 57 51 36 78 71 75 99 -2
20 -8 24 -28 22 -31 -4 -87 -64 -95 -103 -9 -39 -37 -52 -117 -55 -163 -7
-261 74 -261 213 0 81 36 156 104 217 70 62 101 77 142 65 75 -23 207 -11 298
25 52 22 59 22 100 9 56 -19 66 -28 49 -48 -9 -11 -9 -15 0 -15 7 0 10 -9 6
-27 -4 -16 -2 -44 4 -63 15 -52 -2 -59 -54 -22 -57 41 -133 61 -221 57 -170
-7 -288 -81 -305 -190 -9 -62 8 -98 58 -118 43 -17 78 -15 122 8 32 17 63 49
36 39 -9 -3 -16 -10 -16 -14 0 -11 -57 -30 -92 -30 -100 0 -132 103 -54 174
74 67 232 82 339 33 31 -14 57 -29 57 -33 0 -4 -10 -18 -22 -31 -12 -13 -17
-23 -11 -23 5 0 18 9 27 19 18 20 107 67 138 73 9 2 24 -6 35 -18 23 -26 86
-55 133 -61 l38 -5 -3 -49 c-4 -60 -12 -74 -31 -58 -17 14 -29 6 -21 -15 4 -9
14 -12 26 -9 23 6 44 64 36 101 -3 16 1 22 13 23 32 1 87 9 112 16 14 3 27 7
30 8 3 0 25 11 48 24 24 12 46 21 48 19 2 -2 4 -18 6 -36 1 -18 6 -32 11 -32
4 0 5 19 2 41 -6 38 -3 45 28 78 55 58 76 95 93 162 40 157 -39 317 -189 379
-31 13 -57 27 -57 31 0 4 9 23 19 41 44 74 43 213 -1 288 -47 79 -154 152
-263 180 -71 17 -219 19 -295 3z m233 -18 c105 -12 240 -82 292 -149 65 -85
75 -193 28 -285 l-28 -54 -88 2 c-89 2 -164 -14 -214 -46 -11 -8 -23 -10 -25
-6 -4 7 -3 51 1 83 0 6 16 10 35 10 82 0 174 56 201 122 20 51 15 58 -10 12
-21 -40 -57 -53 -125 -47 -41 4 -120 39 -120 52 0 3 18 19 40 35 22 17 40 35
40 40 0 8 -3 8 -8 1 -12 -18 -63 -51 -157 -100 -157 -84 -221 -150 -232 -245
-4 -38 -1 -56 17 -88 42 -74 127 -91 235 -47 33 14 61 25 61 25 1 0 2 -45 3
-101 1 -111 6 -105 -67 -78 -23 9 -22 9 18 47 57 55 50 63 -10 9 l-49 -44 -53
9 c-71 14 -212 4 -280 -19 -55 -19 -56 -19 -82 0 -56 41 -85 146 -63 227 13
50 56 105 100 130 35 20 40 21 56 6 20 -18 74 -31 95 -23 21 8 9 45 -18 54
-11 4 -36 7 -55 8 -31 0 -37 5 -57 46 -98 195 75 393 366 421 38 4 80 2 153
-7z m-158 -375 c4 -6 29 -24 58 -40 l51 -29 -3 -58 c-3 -70 -11 -80 -48 -65
-26 11 -26 11 -9 -2 18 -15 18 -17 2 -43 l-17 -28 24 29 c30 35 47 27 47 -23
0 -32 -4 -40 -22 -45 -41 -11 -97 -6 -131 10 -87 42 -93 176 -13 272 28 32 50
40 61 22z m-247 -124 c3 -16 0 -18 -25 -12 -15 4 -35 14 -43 22 -13 14 -11 15
25 12 30 -2 41 -8 43 -22z m669 -12 c3 -10 -79 -56 -122 -68 -75 -21 -175 -15
-175 10 0 15 45 41 105 60 47 15 187 14 192 -2z m90 -24 c58 -26 114 -80 149
-143 26 -47 29 -61 29 -142 0 -79 -4 -97 -28 -145 -15 -30 -40 -70 -55 -88
l-27 -33 -47 45 c-45 43 -47 46 -28 59 26 18 70 96 70 125 0 12 5 22 10 22 12
0 13 37 1 44 -5 3 -12 20 -15 38 -8 43 -71 114 -118 133 -52 21 -48 12 6 -14
66 -33 98 -88 102 -176 2 -59 -1 -76 -22 -112 -31 -54 -57 -68 -116 -64 -38 2
-48 -1 -57 -17 -9 -17 -7 -20 17 -25 15 -3 41 1 58 8 28 11 36 11 61 -5 16 -9
37 -29 46 -43 17 -27 17 -27 -20 -50 -48 -30 -95 -45 -156 -51 -38 -3 -50 0
-54 13 -21 56 -54 123 -60 118 -3 -4 0 -13 6 -21 7 -8 19 -36 26 -61 13 -40
12 -45 -2 -45 -33 0 -90 23 -123 50 l-35 29 90 41 c208 96 276 200 214 326
-46 96 -162 119 -299 60 -12 -5 -15 2 -16 27 l-1 34 76 -3 c86 -3 162 18 215
60 38 30 49 31 103 6z m-282 -141 c48 -13 83 -43 101 -86 28 -66 9 -166 -42
-219 l-32 -35 -61 57 c-48 46 -58 61 -49 72 12 14 63 43 74 41 3 0 8 2 11 5
13 13 -41 -5 -71 -24 -18 -11 -35 -20 -37 -20 -10 0 0 159 10 178 10 18 9 21
-4 16 -8 -4 -15 -3 -15 0 0 8 39 25 60 25 8 1 33 -4 55 -10z m-275 -190 c0 -9
-45 -26 -100 -39 -65 -14 -163 -12 -184 3 -17 12 -15 15 25 25 24 6 53 13 64
16 31 7 195 3 195 -5z m238 -103 c23 -21 42 -43 42 -48 0 -6 -95 -58 -106 -58
-2 0 -8 18 -14 40 -11 41 -5 90 12 90 6 0 7 7 4 16 -8 20 8 10 62 -40z m252
-36 c0 -5 -14 -10 -31 -10 -17 0 -28 4 -24 10 3 6 17 10 31 10 13 0 24 -4 24
-10z m-550 -277 c0 -9 -18 -33 -40 -55 -61 -58 -77 -50 -40 21 11 22 25 41 32
44 27 11 48 7 48 -10z"/>
<path d="M886 1671 c-4 -5 -25 -19 -49 -30 -40 -20 -97 -67 -125 -103 -20 -25
-31 -84 -22 -116 5 -21 7 -15 7 26 1 44 6 60 30 90 41 51 106 85 159 84 24 0
47 5 51 10 3 6 1 8 -5 4 -6 -3 -13 -2 -17 4 -11 17 157 5 198 -15 46 -22 57
-35 64 -79 4 -29 2 -36 -11 -36 -9 0 -16 -7 -16 -16 0 -11 5 -14 16 -10 9 3
18 6 20 6 2 0 4 18 4 39 0 47 -34 93 -82 111 -18 6 -40 15 -48 19 -8 5 -43 7
-77 7 -35 -1 -57 2 -50 6 7 5 2 8 -15 8 -15 0 -29 -4 -32 -9z"/>
<path d="M625 1171 c-17 -3 -40 -13 -52 -22 -25 -17 -59 -89 -43 -89 5 0 10 9
10 19 0 29 54 81 84 81 15 0 29 -7 32 -15 8 -19 34 -20 34 0 0 20 -30 32 -65
26z"/>
<path d="M520 1045 c0 -18 26 -54 54 -73 51 -35 175 -24 201 18 4 7 -4 5 -18
-5 -14 -9 -50 -19 -80 -22 -46 -5 -61 -2 -91 17 -20 12 -39 33 -42 46 -5 20
-24 35 -24 19z"/>
<path d="M1204 907 c20 -16 25 -26 18 -31 -17 -10 -15 -36 2 -36 15 0 27 35
20 55 -3 8 -20 18 -37 24 l-32 11 29 -23z"/>
</g>
</svg>
